<?xml version="1.0" encoding="UTF-8"?>
<svg viewBox="-45 0 287 287" version="1.1" xmlns="http://www.w3.org/2000/svg" xmlns:xlink="http://www.w3.org/1999/xlink">
    <!-- Generator: Sketch 64 (93537) - https://sketch.com -->
    <title>logo-join</title>
    <desc>Created with Sketch.</desc>
    <g id="Page-1" stroke="none" stroke-width="1" fill="none" fill-rule="evenodd">
        <g id="logo-join" fill="#000000" fill-rule="nonzero">
            <g id="Group">
                <path d="M159,181.00475 C159,196.856375 156.768871,211.273 152.301484,224.25975 C147.834097,237.251625 141.104806,248.38825 132.093097,257.67475 C123.091645,266.966375 111.782129,274.17725 98.1696774,279.30225 C84.5520968,284.4375 68.523871,287 50.0747419,287 C41.7298065,287 33.4925806,286.6105 25.3630645,285.8315 C16.8443403,284.993201 8.3775018,283.692951 0,281.9365 L3.94935484,243.55025 C4.24683871,240.172875 5.74451613,237.446375 8.45777419,235.365625 C11.1607742,233.29 14.9357419,232.249625 19.7672903,232.249625 C22.254871,232.249625 25.3271613,232.608375 28.9892903,233.32075 C32.6462903,234.03825 37.041871,234.397 42.1657742,234.397 C49.3361613,234.397 55.5987097,233.520625 60.9431613,231.76275 C66.2824839,230.01 70.7139677,227.083625 74.2273548,222.999 C77.7407419,218.899 80.3821935,213.5485 82.1363226,206.921875 C83.8904516,200.29525 84.7726452,192.110625 84.7726452,182.373125 L84.7726452,0 L159,0 L159,181.00475" id="8l3ua"></path>
            </g>
            <g id="Group">
                <path d="M159,181.00475 C159,196.856375 156.768871,211.273 152.301484,224.25975 C147.834097,237.251625 141.104806,248.38825 132.093097,257.67475 C123.091645,266.966375 111.782129,274.17725 98.1696774,279.30225 C84.5520968,284.4375 68.523871,287 50.0747419,287 C41.7298065,287 33.4925806,286.6105 25.3630645,285.8315 C16.8443403,284.993201 8.3775018,283.692951 0,281.9365 L3.94935484,243.55025 C4.24683871,240.172875 5.74451613,237.446375 8.45777419,235.365625 C11.1607742,233.29 14.9357419,232.249625 19.7672903,232.249625 C22.254871,232.249625 25.3271613,232.608375 28.9892903,233.32075 C32.6462903,234.03825 37.041871,234.397 42.1657742,234.397 C49.3361613,234.397 55.5987097,233.520625 60.9431613,231.76275 C66.2824839,230.01 70.7139677,227.083625 74.2273548,222.999 C77.7407419,218.899 80.3821935,213.5485 82.1363226,206.921875 C83.8904516,200.29525 84.7726452,192.110625 84.7726452,182.373125 L84.7726452,0 L159,0 L159,181.00475 Z" id="8l3ub"></path>
            </g>
        </g>
    </g>
</svg>