<?xml version="1.0" encoding="UTF-8"?>
<svg viewBox="0 0 768 768" version="1.1" xmlns="http://www.w3.org/2000/svg" xmlns:xlink="http://www.w3.org/1999/xlink">
    <!-- Generator: Sketch 63.1 (92452) - https://sketch.com -->
    <title>Group 3</title>
    <desc>Created with Sketch.</desc>
    <defs>
        <circle id="path-1" cx="384" cy="384" r="384"></circle>
    </defs>
    <g id="Parley" stroke="none" stroke-width="1" fill="none" fill-rule="evenodd">
        <g id="Logo-Web" transform="translate(-128.000000, -128.000000)">
            <g id="Group-3" transform="translate(128.000000, 128.000000)">
                <mask id="mask-2" fill="white">
                    <use xlink:href="#path-1"></use>
                </mask>
                <g id="Group-2" mask="url(#mask-2)">
                    <g transform="translate(125.000000, 125.000000)">
                        <path d="M131.198833,494.164444 L363.808472,726.823532 L364.091468,726.418674 L639.159027,1001.54431 L568.316093,1010 L331.093975,773.848146 L331.262472,773.604532 L98.201339,541.593916 L131.198833,494.164444 Z M419.934823,40.7385321 L496.889472,110.817532 L508.668906,86.9654087 L665.605325,245.532226 L801.851472,388.530532 L992.319827,561.980703 L987.643472,583.530532 L1054,653.1762 L1005.60055,929.359727 L957.187472,886.357532 L957.187494,901.911523 L646.777472,901.910532 L623.633111,934.853106 L393.352472,708.351532 L393.088879,708.727429 L155.793288,475.325958 L179.348472,437.172532 L97.2324723,354.898871 L251.867764,57.518591 L336.275472,141.989532 L419.934823,40.7385321 Z" id="Combined-Shape" fill-opacity="0.3" fill="#000000"></path>
                        <g id="Thought-cloud-large" stroke-width="1" fill="none" transform="translate(0.000000, 36.100917)">
                            <path d="M115.067695,451.168782 C129.285003,451.168782 140.810409,464.95786 140.810409,481.96755 C140.810409,498.97724 129.285003,512.766318 115.067695,512.766318 C100.850387,512.766318 89.3249812,498.97724 89.3249812,481.96755 C89.3249812,464.95786 100.850387,451.168782 115.067695,451.168782 Z M183.079309,350.027149 C206.423778,350.027149 225.348209,372.668474 225.348209,400.597965 C225.348209,428.527456 206.423778,451.168782 183.079309,451.168782 C159.73484,451.168782 140.810409,428.527456 140.810409,400.597965 C140.810409,372.668474 159.73484,350.027149 183.079309,350.027149 Z M197.063005,0.213981463 C217.280885,0.213981463 235.993846,7.92282258 251.260454,21.0177602 L275.880203,169.797321 L341.893823,313.108981 L341.610157,313.537227 C326.701386,335.783343 303.793472,350.027149 278.104882,350.027149 C244.36232,350.027149 215.417378,325.45169 203.092438,290.445159 C191.478474,317.685598 167.806275,336.338807 140.492597,336.338807 C101.702164,336.338807 70.2563044,298.716755 70.2563044,252.307601 C70.2563044,241.956096 71.8207597,232.041755 74.6822222,222.884557 C73.3240819,222.98217 71.9537441,223.02976 70.5741157,223.02976 C31.7836821,223.02976 0.337822564,185.407707 0.337822564,138.998553 C0.337822564,92.5893994 31.7836821,54.9673468 70.5741157,54.9673468 C85.4771641,54.9673468 99.2961169,60.5205484 110.664216,69.9917525 C124.445405,29.0855147 157.936056,0.213981463 197.063005,0.213981463 Z" id="Combined-Shape" fill="#000000"></path>
                        </g>
                        <g id="Thought-cloud-medium" stroke-width="1" fill="none" transform="translate(421.171829, 215.487816) rotate(-1.000000) translate(-421.171829, -215.487816) translate(308.171829, 66.487816)">
                            <path d="M154.736228,0.433394482 C193.712262,0.433394482 225.30858,38.1215556 225.30858,84.6122585 C225.30858,122.758119 204.037032,154.977857 174.870887,165.315412 C178.164486,175.885474 179.963449,187.323702 179.963449,199.263109 C179.963449,253.116593 143.363189,296.773468 98.2144804,296.773468 C87.960746,296.773468 78.1479326,294.521687 69.1046429,290.410084 L0.179584296,145.937132 L130.850122,5.37680168 C138.30915,2.17737467 146.351945,0.433394482 154.736228,0.433394482 Z" id="Combined-Shape" fill="#000000"></path>
                        </g>
                        <g id="Thought-cloud-small" stroke-width="1" fill="none" transform="translate(346.817932, 95.693646) rotate(-2.000000) translate(-346.817932, -95.693646) translate(269.031954, 2.941353)">
                            <path d="M73.7928301,0.131383078 C105.98419,0.131383078 134.804219,17.3487462 154.133714,44.4844721 L25.1239433,184.405328 L0.450721407,35.5693831 L0.975484363,34.9667442 C19.8952903,13.3876453 45.5462064,0.131383078 73.7928301,0.131383078 Z" id="Combined-Shape" fill="#000000"></path>
                        </g>
                    </g>
                </g>
            </g>
        </g>
    </g>
</svg>